<svg width="119" height="19" viewBox="0 0 119 19" fill="none" xmlns="http://www.w3.org/2000/svg">
<path fill-rule="evenodd" clip-rule="evenodd" d="M3.0905 3.91311H16.7397C17.2062 3.91311 17.5482 4.35211 17.4353 4.80391L15.9785 10.6305C15.9025 10.9345 15.6378 11.1539 15.3251 11.1723L3.86762 11.8456C4.07245 12.3243 4.54702 12.6529 5.09162 12.6529H13.0982C14.2967 12.6529 15.2717 13.628 15.2717 14.8264C15.2717 16.0249 14.2967 17 13.0982 17C11.5964 17 10.5406 15.502 11.0544 14.0868H7.13056C7.645 15.5038 6.58692 17 5.08677 17C3.27933 17 2.26409 14.9081 3.37522 13.4891C2.75894 13.0009 2.40119 12.2825 2.34268 11.6204C1.43419 1.49854 1.47444 1.94695 1.55953 2.89506L1.56008 2.9012C1.61714 3.53699 1.6934 4.38676 1.51811 2.43385H0.716927C0.320978 2.43385 0 2.11288 0 1.71693C0 1.32098 0.320978 1 0.716927 1H2.17355C2.54465 1 2.85443 1.28322 2.88761 1.65285L3.0905 3.91311ZM4.3471 14.8264C4.3471 15.2343 4.67894 15.5661 5.08677 15.5661C5.49463 15.5661 5.82647 15.2343 5.82647 14.8264C5.82647 14.4186 5.49463 14.0868 5.08677 14.0868C4.67894 14.0868 4.3471 14.4186 4.3471 14.8264ZM13.0982 15.5661C12.6903 15.5661 12.3585 15.2343 12.3585 14.8264C12.3585 14.4186 12.6903 14.0868 13.0982 14.0868C13.506 14.0868 13.8379 14.4186 13.8379 14.8264C13.8379 15.2343 13.506 15.5661 13.0982 15.5661ZM3.67463 10.4206L14.7152 9.77181L15.8215 5.34693H3.21921L3.67463 10.4206Z" fill="white"/>
<path d="M33 15L37.5703 3.28125H40.25L44.8203 15H42.2656L41.2812 12.375H36.5391L35.5547 15H33ZM40.5 10.2656C40.1875 9.34896 39.9089 8.52865 39.6641 7.80469C39.4193 7.08073 39.1693 6.33333 38.9141 5.5625C38.6589 6.33333 38.4062 7.08073 38.1562 7.80469C37.9115 8.52865 37.6328 9.34896 37.3203 10.2656H40.5ZM45.2969 11.0938C45.2969 10.3125 45.4609 9.61719 45.7891 9.00781C46.1172 8.39323 46.5677 7.91146 47.1406 7.5625C47.7188 7.20833 48.3724 7.03125 49.1016 7.03125C49.5911 7.03125 50.0469 7.11458 50.4688 7.28125C50.8906 7.44271 51.2656 7.66927 51.5938 7.96094V3.28125H53.8438V15H51.7188L51.6641 14.1562C51.3359 14.474 50.9531 14.7214 50.5156 14.8984C50.0833 15.0703 49.612 15.1562 49.1016 15.1562C48.3724 15.1562 47.7188 14.9818 47.1406 14.6328C46.5677 14.2786 46.1172 13.7969 45.7891 13.1875C45.4609 12.5729 45.2969 11.875 45.2969 11.0938ZM47.625 11.0938C47.625 11.6979 47.8125 12.2005 48.1875 12.6016C48.5625 13.0026 49.0365 13.2031 49.6094 13.2031C50.1823 13.2031 50.6562 13.0026 51.0312 12.6016C51.4062 12.2005 51.5938 11.6979 51.5938 11.0938C51.5938 10.4896 51.4062 9.98698 51.0312 9.58594C50.6562 9.1849 50.1823 8.98438 49.6094 8.98438C49.0365 8.98438 48.5625 9.1849 48.1875 9.58594C47.8125 9.98698 47.625 10.4896 47.625 11.0938ZM55.3281 11.0938C55.3281 10.3125 55.4922 9.61719 55.8203 9.00781C56.1484 8.39323 56.599 7.91146 57.1719 7.5625C57.75 7.20833 58.4036 7.03125 59.1328 7.03125C59.6224 7.03125 60.0781 7.11458 60.5 7.28125C60.9219 7.44271 61.2969 7.66927 61.625 7.96094V3.28125H63.875V15H61.75L61.6953 14.1562C61.3672 14.474 60.9844 14.7214 60.5469 14.8984C60.1146 15.0703 59.6432 15.1562 59.1328 15.1562C58.4036 15.1562 57.75 14.9818 57.1719 14.6328C56.599 14.2786 56.1484 13.7969 55.8203 13.1875C55.4922 12.5729 55.3281 11.875 55.3281 11.0938ZM57.6562 11.0938C57.6562 11.6979 57.8438 12.2005 58.2188 12.6016C58.5938 13.0026 59.0677 13.2031 59.6406 13.2031C60.2135 13.2031 60.6875 13.0026 61.0625 12.6016C61.4375 12.2005 61.625 11.6979 61.625 11.0938C61.625 10.4896 61.4375 9.98698 61.0625 9.58594C60.6875 9.1849 60.2135 8.98438 59.6406 8.98438C59.0677 8.98438 58.5938 9.1849 58.2188 9.58594C57.8438 9.98698 57.6562 10.4896 57.6562 11.0938ZM69.0312 7.1875H70.3203V5.23438H72.5703V7.1875H74.4688V9.14062H72.5703V12.0156C72.5703 12.3854 72.6875 12.6771 72.9219 12.8906C73.1615 13.099 73.4635 13.2031 73.8281 13.2031C74.099 13.2031 74.3776 13.1432 74.6641 13.0234V14.8672C74.1693 15.0599 73.6823 15.1562 73.2031 15.1562C72.276 15.1562 71.5625 14.9089 71.0625 14.4141C70.5677 13.9141 70.3203 13.2005 70.3203 12.2734V9.14062H69.0312V7.1875ZM75.8438 11.0938C75.8438 10.3125 76.0234 9.61719 76.3828 9.00781C76.7474 8.39323 77.2422 7.91146 77.8672 7.5625C78.4974 7.20833 79.2135 7.03125 80.0156 7.03125C80.8177 7.03125 81.5312 7.20833 82.1562 7.5625C82.7812 7.91146 83.2734 8.39323 83.6328 9.00781C83.9974 9.61719 84.1797 10.3125 84.1797 11.0938C84.1797 11.875 83.9974 12.5729 83.6328 13.1875C83.2734 13.7969 82.7812 14.2786 82.1562 14.6328C81.5312 14.9818 80.8177 15.1562 80.0156 15.1562C79.2135 15.1562 78.4974 14.9818 77.8672 14.6328C77.2422 14.2786 76.7474 13.7969 76.3828 13.1875C76.0234 12.5729 75.8438 11.875 75.8438 11.0938ZM78.0312 11.0938C78.0312 11.6979 78.2188 12.2005 78.5938 12.6016C78.9688 13.0026 79.4427 13.2031 80.0156 13.2031C80.5885 13.2031 81.0625 13.0026 81.4375 12.6016C81.8125 12.2005 82 11.6979 82 11.0938C82 10.4896 81.8125 9.98698 81.4375 9.58594C81.0625 9.1849 80.5885 8.98438 80.0156 8.98438C79.4427 8.98438 78.9688 9.1849 78.5938 9.58594C78.2188 9.98698 78.0312 10.4896 78.0312 11.0938ZM96.1172 14C95.737 14.3646 95.2812 14.6484 94.75 14.8516C94.224 15.0547 93.651 15.1562 93.0312 15.1562C92.2031 15.1562 91.4635 14.9818 90.8125 14.6328C90.1667 14.2786 89.6562 13.7969 89.2812 13.1875C88.9062 12.5729 88.7188 11.875 88.7188 11.0938C88.7188 10.3125 88.9062 9.61719 89.2812 9.00781C89.6562 8.39323 90.1667 7.91146 90.8125 7.5625C91.4635 7.20833 92.2031 7.03125 93.0312 7.03125C93.651 7.03125 94.224 7.13281 94.75 7.33594C95.2812 7.53906 95.737 7.82292 96.1172 8.1875L94.5312 9.67969C94.1562 9.21615 93.6562 8.98438 93.0312 8.98438C92.4583 8.98438 91.9844 9.1849 91.6094 9.58594C91.2344 9.98698 91.0469 10.4896 91.0469 11.0938C91.0469 11.6979 91.2344 12.2005 91.6094 12.6016C91.9844 13.0026 92.4583 13.2031 93.0312 13.2031C93.6562 13.2031 94.1562 12.9714 94.5312 12.5078L96.1172 14ZM97.3594 12.8516C97.3594 12.3307 97.5078 11.8646 97.8047 11.4531C98.1068 11.0417 98.5208 10.7161 99.0469 10.4766C99.5729 10.237 100.174 10.1172 100.852 10.1172C101.065 10.1172 101.289 10.1302 101.523 10.1562C101.763 10.1823 102.003 10.2161 102.242 10.2578C102.07 9.40885 101.453 8.98438 100.391 8.98438C99.7604 8.98438 99.1276 9.22135 98.4922 9.69531L97.7188 7.79688C98.2604 7.53646 98.7943 7.34375 99.3203 7.21875C99.8464 7.09375 100.346 7.03125 100.82 7.03125C101.576 7.03125 102.229 7.17448 102.781 7.46094C103.339 7.74219 103.771 8.14323 104.078 8.66406C104.385 9.17969 104.539 9.78646 104.539 10.4844V15H102.648L102.5 14.1641C102.208 14.4714 101.852 14.7135 101.43 14.8906C101.013 15.0677 100.555 15.1562 100.055 15.1562C99.263 15.1562 98.6146 14.9427 98.1094 14.5156C97.6094 14.0885 97.3594 13.5339 97.3594 12.8516ZM99.6094 12.3359C99.6094 12.5964 99.7083 12.8073 99.9062 12.9688C100.109 13.125 100.375 13.2031 100.703 13.2031C101.151 13.2031 101.526 13.0677 101.828 12.7969C102.135 12.526 102.289 12.1927 102.289 11.7969V11.6406C102.096 11.5781 101.888 11.5286 101.664 11.4922C101.445 11.4557 101.229 11.4375 101.016 11.4375C100.573 11.4375 100.227 11.5156 99.9766 11.6719C99.7318 11.8281 99.6094 12.0495 99.6094 12.3359ZM106.422 15V7.1875H108.391L108.5 8.30469C109.068 7.45573 109.849 7.03125 110.844 7.03125C111.182 7.03125 111.531 7.08333 111.891 7.1875L111.578 9.13281C111.276 9.03385 110.979 8.98438 110.688 8.98438C110.083 8.98438 109.596 9.20833 109.227 9.65625C108.857 10.099 108.672 10.7318 108.672 11.5547V15H106.422ZM112.281 7.1875H113.57V5.23438H115.82V7.1875H117.719V9.14062H115.82V12.0156C115.82 12.3854 115.938 12.6771 116.172 12.8906C116.411 13.099 116.714 13.2031 117.078 13.2031C117.349 13.2031 117.628 13.1432 117.914 13.0234V14.8672C117.419 15.0599 116.932 15.1562 116.453 15.1562C115.526 15.1562 114.812 14.9089 114.312 14.4141C113.818 13.9141 113.57 13.2005 113.57 12.2734V9.14062H112.281V7.1875Z" fill="white"/>
</svg>
